<svg width="512" height="512" viewBox="0 0 512 512" fill="none" xmlns="http://www.w3.org/2000/svg">
<path d="M176 448C193.673 448 208 433.673 208 416C208 398.327 193.673 384 176 384C158.327 384 144 398.327 144 416C144 433.673 158.327 448 176 448Z" fill="white"/>
<path d="M400 448C417.673 448 432 433.673 432 416C432 398.327 417.673 384 400 384C382.327 384 368 398.327 368 416C368 433.673 382.327 448 400 448Z" fill="white"/>
<path d="M167.78 304H429.12L467.52 112H133.89L125.42 64H32V96H98.58L146.58 368H432V336H173.42L167.78 304Z" fill="white"/>
</svg>
