<svg xmlns="http://www.w3.org/2000/svg" viewBox="0 0 635.42 644.37"><defs><style>.cls-1{fill:#0369a1;}.cls-2{fill:#f59e0b;}.cls-3{fill:#fff;}</style></defs><g id="Camada_2" data-name="Camada 2"><g id="Camada_1-2" data-name="Camada 1"><path class="cls-1" d="M313.31,315.57Q311.19,277,298.6,246.15c-1-2.54-2.11-5-3.24-7.51a184.68,184.68,0,0,0-20.6-35.09,164.34,164.34,0,0,0-17.54-19.92,173.41,173.41,0,0,0-61.43-38.37q-35.22-13-75.35-13-56.82,0-88,18.56T1.25,198.49q0,16.13,8,27.86a66.72,66.72,0,0,0,18.53,18.58,200.37,200.37,0,0,1,34.28-18q18.24-7.46,42.34-7.44,47.54,0,72.84,29.43t25.32,82.62q0,55.13-27.47,83.26T98.82,443q-25.27,0-42.92-6.81a295,295,0,0,1-33.67-15.49A61.92,61.92,0,0,0,5.88,441.46Q0,453.55,0,469.66a47.63,47.63,0,0,0,7.42,26q7.41,11.78,25.32,19.83,11.09,4.93,31.51,9.89t49.39,4.95q42,0,78.43-11.76a175.5,175.5,0,0,0,63.63-35.91,157.38,157.38,0,0,0,33.83-43.15q1.67-3,3.22-6.19c.91-1.77,1.75-3.59,2.61-5.45,1-2.22,2-4.49,2.95-6.8s1.75-4.36,2.52-6.58Q313.42,380,313.71,334c0-.82,0-1.63,0-2.45C313.74,326.15,313.6,320.82,313.31,315.57Z"/><path class="cls-1" d="M510.5,12.25Q498.62,0,478.47,0h-316q-5,7.94-9,20.89a97.63,97.63,0,0,0-3.94,28.16q0,27.42,11.88,39.68c7.9,8.19,18.61,12.27,32,12.27h81.35V436.54c2.07.59,4.58,1.14,7.53,1.7,2.18.43,4.59.84,7.24,1.25,1.32.2,2.7.41,4.15.61,1.77.28,3.61.52,5.56.77A257.53,257.53,0,0,0,333.07,443q19.64,0,33.05-3.45c-.18-1-.38-1.95-.54-2.95a171.63,171.63,0,0,1-2.48-30.72q0-46.89,19.24-69.55a65.41,65.41,0,0,1,8.92-8.72,58.75,58.75,0,0,1,9.48-6.35V101H509.43c3.36-5.28,6.36-12.27,9-20.92a95.77,95.77,0,0,0,4-28.13Q522.39,24.53,510.5,12.25Z"/><path class="cls-2" d="M634.91,578.43l-.4-.14q-19.87-6.1-43.27-13.5c-8.35-2.66-16.52-5.51-24.45-8.58a10.88,10.88,0,1,1-10-4c-3.64-1.53-7.25-3.09-10.76-4.71q32.33-19.51,51.39-55.08t19-86.53q0-40.18-12.58-70.83t-34.69-51.49a147.45,147.45,0,0,0-22.64-17.54,15.83,15.83,0,0,1,.9,5.18,15.28,15.28,0,1,1-19-14.82c-3.58-1.62-7.19-3.16-10.91-4.51Q488,241.1,453.58,241.07a198.7,198.7,0,0,0-32.24,2.56c-3.19.55-6.36,1.14-9.49,1.81-3.76.83-7.46,1.75-11.11,2.82s-7.51,2.3-11.16,3.64a146.27,146.27,0,0,0-51.36,31.69,139.12,139.12,0,0,0-24.91,32A160,160,0,0,0,304.23,334c-.13.35-.29.7-.43,1a155.23,155.23,0,0,0-8.44,27.78,211.51,211.51,0,0,0-4.15,43.05c0,2.88,0,5.72.13,8.55.21,6.47.67,12.73,1.42,18.84.18,1.65.4,3.31.63,4.94.08.61.18,1.26.29,1.87A168.33,168.33,0,0,0,303.51,477c1.81,4.56,3.8,8.89,5.92,13.11a21.82,21.82,0,1,1,24.09,34.65c1.25,1.33,2.59,2.69,3.93,4a143.08,143.08,0,0,0,51.36,31.68q29.81,10.77,64.77,10.81h3l23.64,22.15q26.21,24.71,51.39,37.84a116.79,116.79,0,0,0,29.12,10.88s.55.14,1.55.35c.4.09.78.16,1.18.23h0a8.39,8.39,0,0,1-1.64-1.29,10.71,10.71,0,0,1-3.54-8,10.89,10.89,0,1,1,13.88,10.45,1.09,1.09,0,0,1-.17,0c2.83.27,5.64.47,8.46.47a74.38,74.38,0,0,0,14.43-1.31h0A52.13,52.13,0,0,0,620.3,631a37.86,37.86,0,0,0,6.61-7.68c.54-.84,1.07-1.73,1.58-2.66q6.91-12.52,6.93-32.4v-4.37A32.73,32.73,0,0,0,634.91,578.43ZM358.57,541.6a10.94,10.94,0,1,1,10.91-10.91A10.91,10.91,0,0,1,358.57,541.6Zm13.63-23.91a15.29,15.29,0,1,1,15.27-15.29A15.3,15.3,0,0,1,372.2,517.69Zm132.75-42q-19.08,22.92-50.89,22.94-32.34,0-51.39-22.94-11.37-13.76-15.95-36.1c-.19-1-.39-1.95-.54-2.95a171.55,171.55,0,0,1-2.48-30.72q0-46.89,19.25-69.55a65.87,65.87,0,0,1,8.9-8.72,59.72,59.72,0,0,1,9.49-6.35q14.09-7.59,32.24-7.57,32.3,0,51.37,22.91t19,69.28Q523.93,452.79,505,475.68ZM536.49,297.2a10.91,10.91,0,1,1,10.92,10.93A10.89,10.89,0,0,1,536.49,297.2Zm58.86,334a15.27,15.27,0,1,1,15.27-15.3A15.29,15.29,0,0,1,595.35,631.22Z"/><path class="cls-3" d="M580.08,633.4a10.86,10.86,0,0,1-7.9,10.45c-3.67-.33-6.71-.82-8.7-1.18a8.39,8.39,0,0,1-1.64-1.29,10.71,10.71,0,0,1-3.54-8,10.89,10.89,0,1,1,21.78,0Z"/><path class="cls-3" d="M610.62,615.92a15.29,15.29,0,0,1-15.27,15.3,15.27,15.27,0,1,1,15.27-15.3Z"/></g></g></svg>