<svg xmlns="http://www.w3.org/2000/svg" viewBox="0 0 1024 1024"><defs><style>.cls-1{fill:#fff;}.cls-2{fill:#0369a1;}.cls-3{fill:#06b6d4;}.cls-4{fill:#f59e0b;}</style></defs><g id="Camada_2" data-name="Camada 2"><g id="Camada_1-2" data-name="Camada 1"><circle class="cls-1" cx="512" cy="512" r="512"/><path class="cls-2" d="M929,463.87a18,18,0,0,1-17.79-15.31A415.24,415.24,0,0,0,805.72,229.12c-8-8.65-16.35-17.05-24.94-25A417.58,417.58,0,0,0,613.26,110.3a18,18,0,1,1,9.87-34.66,453.73,453.73,0,0,1,182,102c9.32,8.57,18.43,17.68,27.06,27.07A451.13,451.13,0,0,1,946.81,443.15,18,18,0,0,1,929,463.87Z"/><path class="cls-2" d="M65.82,526.55h0a18,18,0,0,1-18-18.06C48,404,84.6,302.38,150.75,222.33a451.65,451.65,0,0,1,343.17-164h.19a18,18,0,0,1,.19,36,414.17,414.17,0,0,0-276.46,109.5,413.84,413.84,0,0,0-134,304.72A18,18,0,0,1,65.82,526.55Z"/><path class="cls-2" d="M942.19,605.11c-.57,2.64-1.12,5.26-1.73,7.88q-2.93,12.63-6.49,25h0q-2.81,9.68-6,19.15A451,451,0,0,1,501.13,962.62c-14.28,0-28.61-.65-42.93-2A453.89,453.89,0,0,1,73.9,661.21a18,18,0,0,1,33.95-12.07,414.87,414.87,0,0,0,86.2,142.67c140.67,152.93,370.28,178.9,540,63.22.37-.22,51.52-35.4,73.22-63.36a410.51,410.51,0,0,0,85.65-143.54q3.14-9,5.81-18.09h0c2.14-7.24,4.1-14.5,5.82-21.87q1.26-5.22,2.38-10.49a18,18,0,1,1,35.25,7.44Z"/><path class="cls-2" d="M73.1,589.36a2.6,2.6,0,0,1-2-.82c-1.06-1.15-.79-3.21.59-4.48a3.71,3.71,0,0,1,2.53-1,2.6,2.6,0,0,1,2,.82c1.06,1.15.79,3.21-.59,4.48A3.67,3.67,0,0,1,73.1,589.36Z"/><path class="cls-2" d="M74.23,565A21.74,21.74,0,0,0,59.5,570.8c-8.73,8-9.47,21.44-1.65,29.94a20.62,20.62,0,0,0,15.25,6.64,21.72,21.72,0,0,0,14.73-5.79c8.73-8,9.47-21.44,1.65-29.94A20.62,20.62,0,0,0,74.23,565Z"/><ellipse class="cls-3" cx="923.74" cy="600.53" rx="38.66" ry="38.89" transform="translate(-162.67 783.94) rotate(-42.61)"/><path class="cls-2" d="M965.46,562.15A56.67,56.67,0,1,0,924,657.32c1.33,0,2.64-.05,4-.16A56.38,56.38,0,0,0,980.48,603c0-.75,0-1.51,0-2.26A56.71,56.71,0,0,0,965.46,562.15Zm-25,50.84a19.08,19.08,0,0,1-2.59,2.9,20.87,20.87,0,0,1-28.24-30.72,20.31,20.31,0,0,1,13.87-5.4c.32,0,.63,0,1,0a20.88,20.88,0,0,1,7.91,1.94,21.14,21.14,0,0,1,6.57,4.82,20.72,20.72,0,0,1,5.54,15A20.17,20.17,0,0,1,940.45,613Z"/><ellipse class="cls-3" cx="492.29" cy="74.4" rx="38.66" ry="38.89" transform="translate(79.61 352.93) rotate(-42.61)"/><path class="cls-2" d="M534,36a56.9,56.9,0,0,0-80.26-3.51,56.25,56.25,0,0,0-17,30.05,56.88,56.88,0,0,0,4.19,35.81,55.33,55.33,0,0,0,9.66,14.41A56.68,56.68,0,1,0,534,36Zm-27.6,53.75a20.59,20.59,0,0,1-19.14,4.73h0a21.13,21.13,0,0,1-10.13-6.13A20.76,20.76,0,0,1,478.16,59a2.08,2.08,0,0,1,.36-.29h0a20.29,20.29,0,0,1,13.51-5.11,21.07,21.07,0,0,1,8.29,1.71,20.94,20.94,0,0,1,6.08,34.42Z"/><ellipse class="cls-4" cx="618.19" cy="92.97" rx="38.66" ry="38.89" transform="translate(100.27 443.07) rotate(-42.61)"/><path class="cls-2" d="M659.9,54.61a56.67,56.67,0,1,0-44,95.11c.85.05,1.73.07,2.59.07a56.11,56.11,0,0,0,38.24-14.93A55,55,0,0,0,663,128,56.11,56.11,0,0,0,674.92,95.4c0-.5,0-1,0-1.47A56.4,56.4,0,0,0,659.9,54.61ZM633.39,79a21,21,0,0,1,5.54,15,20.44,20.44,0,0,1-6.6,14.32,20,20,0,0,1-9.35,4.89h0a19.22,19.22,0,0,1-5.47.52A20.94,20.94,0,0,1,604.06,77.6a20.42,20.42,0,0,1,13.88-5.4l.94,0A20.82,20.82,0,0,1,633,78.57l0,0A4,4,0,0,1,633.39,79Z"/><ellipse class="cls-4" cx="930.5" cy="447.49" rx="38.66" ry="38.89" transform="translate(-57.28 748.11) rotate(-42.61)"/><path class="cls-2" d="M972.21,409.13a56.87,56.87,0,0,0-71.67-10,55.86,55.86,0,0,0-8.56,6.48,56.93,56.93,0,1,0,80.23,3.52Zm-27.57,53.72a20.91,20.91,0,0,1-34.39-20,20.38,20.38,0,0,1,20-16.11,21,21,0,0,1,14.87,6.17c.2.18.38.41.58.61A20.78,20.78,0,0,1,944.64,462.85Z"/><path class="cls-2" d="M500.42,558.2q-2.12-38.57-14.7-69.42c-1.05-2.54-2.11-5-3.25-7.51a184.45,184.45,0,0,0-20.6-35.1,165,165,0,0,0-17.53-19.92,173.42,173.42,0,0,0-61.44-38.36q-35.22-13-75.34-13-56.83,0-88,18.56t-31.17,47.66q0,16.13,8,27.86a67,67,0,0,0,18.53,18.58,200.36,200.36,0,0,1,34.28-17.94q18.26-7.46,42.34-7.45,47.53,0,72.85,29.43t25.31,82.62q0,55.14-27.47,83.27t-76.27,28.17q-25.29,0-42.93-6.8a294.9,294.9,0,0,1-33.66-15.5A62,62,0,0,0,193,684.09c-3.9,8-5.88,17.47-5.88,28.2a47.68,47.68,0,0,0,7.42,26Q202,750,219.85,758.09,231,763,251.36,768t49.39,4.95q42,0,78.43-11.75a175.8,175.8,0,0,0,63.64-35.92,157.2,157.2,0,0,0,33.82-43.15c1.12-2,2.18-4.08,3.23-6.19.9-1.77,1.74-3.58,2.6-5.44,1-2.23,2-4.5,2.95-6.81.91-2.16,1.75-4.36,2.52-6.58q12.6-34.47,12.89-80.42c0-.82,0-1.64,0-2.46Q500.85,566.05,500.42,558.2Z"/><path class="cls-2" d="M697.61,254.87q-11.86-12.24-32-12.25h-316q-5,7.94-9,20.9a97.22,97.22,0,0,0-3.95,28.15q0,27.43,11.89,39.68c7.89,8.19,18.6,12.28,32,12.28h81.35V679.16c2.07.59,4.59,1.14,7.54,1.71q3.25.64,7.23,1.24c1.32.21,2.7.41,4.16.62,1.76.27,3.6.52,5.55.77a259.27,259.27,0,0,0,33.83,2.15q19.64,0,33.05-3.45c-.18-1-.38-2-.54-2.94a171.68,171.68,0,0,1-2.47-30.72q0-46.9,19.24-69.56a65.26,65.26,0,0,1,8.91-8.71,58.53,58.53,0,0,1,9.48-6.35V343.63h108.7c3.36-5.29,6.35-12.28,9-20.92a95.54,95.54,0,0,0,4-28.13Q709.5,267.15,697.61,254.87Z"/><path class="cls-4" d="M822,821.05l-.4-.13q-19.87-6.1-43.26-13.51-12.52-4-24.46-8.58a10.88,10.88,0,1,1-10-4c-3.64-1.53-7.24-3.09-10.75-4.7q32.31-19.53,51.38-55.09t19-86.52q0-40.2-12.59-70.84t-34.69-51.49a147.59,147.59,0,0,0-22.64-17.54,15.93,15.93,0,0,1,.91,5.18,15.28,15.28,0,1,1-19-14.82c-3.58-1.61-7.18-3.15-10.9-4.51q-29.53-10.8-63.95-10.83a198.72,198.72,0,0,0-32.25,2.57c-3.19.54-6.35,1.13-9.48,1.81q-5.65,1.23-11.11,2.81c-3.8,1.1-7.52,2.3-11.17,3.64a146.36,146.36,0,0,0-51.36,31.69,139.34,139.34,0,0,0-24.91,32,160.77,160.77,0,0,0-9.07,18.47c-.14.35-.3.71-.43,1a155.24,155.24,0,0,0-8.45,27.78,211.61,211.61,0,0,0-4.15,43.06c0,2.87,0,5.71.14,8.54.21,6.48.66,12.74,1.41,18.84.18,1.66.4,3.31.63,4.94.09.62.18,1.26.3,1.87a167.47,167.47,0,0,0,9.82,36.86c1.81,4.56,3.81,8.9,5.92,13.11a21.82,21.82,0,1,1,24.09,34.65c1.25,1.34,2.59,2.7,3.93,4A143.11,143.11,0,0,0,575.92,803q29.8,10.79,64.78,10.81h3L667.37,836q26.21,24.71,51.39,37.84a117,117,0,0,0,29.12,10.89s.55.14,1.55.35l1.18.23h0A8.1,8.1,0,0,1,749,884a10.7,10.7,0,0,1-3.54-8,10.88,10.88,0,0,1,20.8-4.52,10.73,10.73,0,0,1,1,4.52,10.87,10.87,0,0,1-7.89,10.46l-.18,0c2.83.27,5.65.47,8.46.47a75.11,75.11,0,0,0,14.43-1.3h0a52.34,52.34,0,0,0,25.37-12.1,38.14,38.14,0,0,0,6.6-7.69c.54-.84,1.07-1.73,1.59-2.65q6.9-12.53,6.92-32.41v-4.37A32.82,32.82,0,0,0,822,821.05ZM545.68,784.22a10.94,10.94,0,1,1,10.91-10.91A10.91,10.91,0,0,1,545.68,784.22Zm13.63-23.9A15.3,15.3,0,1,1,574.59,745,15.3,15.3,0,0,1,559.31,760.32Zm132.75-42Q673,741.24,641.17,741.24q-32.32,0-51.38-22.94-11.37-13.75-15.95-36.1c-.19-1-.39-2-.55-3a171.43,171.43,0,0,1-2.48-30.71q0-46.9,19.25-69.56a65.36,65.36,0,0,1,8.91-8.72,59.13,59.13,0,0,1,9.48-6.34q14.09-7.59,32.25-7.58,32.28,0,51.36,22.91t19,69.29Q711,695.4,692.06,718.3Zm31.55-178.48a10.91,10.91,0,1,1,10.92,10.93A10.89,10.89,0,0,1,723.61,539.82Zm58.86,334a15.36,15.36,0,0,1-15.28-15.29,15.27,15.27,0,0,1,15.28-15.29,15.34,15.34,0,0,1,15.26,15.29A15.28,15.28,0,0,1,782.47,873.84Z"/><path class="cls-1" d="M767.19,876a10.87,10.87,0,0,1-7.89,10.46c-3.68-.34-6.72-.82-8.71-1.18A8.1,8.1,0,0,1,749,884a10.7,10.7,0,0,1-3.54-8,10.88,10.88,0,0,1,20.8-4.52A10.73,10.73,0,0,1,767.19,876Z"/><path class="cls-1" d="M797.73,858.55a15.28,15.28,0,0,1-15.26,15.29,15.36,15.36,0,0,1-15.28-15.29,15.27,15.27,0,0,1,15.28-15.29,15.34,15.34,0,0,1,15.26,15.29Z"/></g></g></svg>