<svg xmlns="http://www.w3.org/2000/svg" viewBox="0 0 939.46 945">
    <defs>
        <style>
            .cls-1 {
                fill: #0369a1;
            }

            .cls-2 {
                fill: #06b6d4;
            }

            .cls-3 {
                fill: #f59e0b;
            }

            .cls-4 {
                fill: #0c4a6e;
            }
        </style>
    </defs>
    <g id="Camada_2" data-name="Camada 2">
        <g id="Camada_1-2" data-name="Camada 1">
            <path class="cls-1"
                d="M881.17,446.25a18,18,0,0,1-17.79-15.31A415.25,415.25,0,0,0,757.92,211.5c-8-8.66-16.35-17.05-24.95-25A417.45,417.45,0,0,0,565.46,92.68,18,18,0,0,1,575.32,58a453.64,453.64,0,0,1,182,102c9.33,8.58,18.44,17.69,27.07,27.08A451.17,451.17,0,0,1,899,425.52a18.06,18.06,0,0,1-17.84,20.73Z" />
            <path class="cls-1"
                d="M18,508.92h0A18,18,0,0,1,0,490.86,451.8,451.8,0,0,1,103,204.7a456.54,456.54,0,0,1,42.69-45,450.19,450.19,0,0,1,300.47-119h.2a18,18,0,0,1,.19,36A414.17,414.17,0,0,0,170,186.23,413.95,413.95,0,0,0,36,491,18,18,0,0,1,18,508.92Z" />
            <path class="cls-1"
                d="M894.38,587.49c-.56,2.63-1.12,5.26-1.72,7.88q-2.92,12.63-6.49,25h0q-2.8,9.66-6,19.15A451,451,0,0,1,453.33,945c-14.28,0-28.61-.65-42.94-2A453.9,453.9,0,0,1,26.1,643.59a18,18,0,1,1,33.95-12.07,415.1,415.1,0,0,0,86.19,142.67c140.68,152.93,370.29,178.9,540,63.21.37-.22,51.52-35.4,73.21-63.35a410.39,410.39,0,0,0,85.66-143.54q3.14-9,5.8-18.1h0c2.15-7.23,4.11-14.49,5.82-21.86q1.28-5.22,2.39-10.49a18,18,0,1,1,35.24,7.44Z" />
            <path class="cls-1"
                d="M25.3,571.73a2.59,2.59,0,0,1-2-.81,3.27,3.27,0,0,1,.59-4.48,3.67,3.67,0,0,1,2.53-1,2.59,2.59,0,0,1,2,.81c1.06,1.16.79,3.21-.59,4.49A3.67,3.67,0,0,1,25.3,571.73Z" />
            <path class="cls-1"
                d="M26.43,547.39a21.78,21.78,0,0,0-14.73,5.78c-8.73,8-9.47,21.45-1.65,30a20.61,20.61,0,0,0,15.25,6.63A21.73,21.73,0,0,0,40,584c8.73-8,9.47-21.44,1.65-30a20.61,20.61,0,0,0-15.25-6.63Z" />
            <ellipse class="cls-2" cx="875.94" cy="582.91" rx="38.66" ry="38.89"
                transform="translate(-163.36 746.92) rotate(-42.61)" />
            <path class="cls-1"
                d="M917.65,544.53a56.67,56.67,0,1,0-41.46,95.16c1.33,0,2.63,0,4-.16a56.38,56.38,0,0,0,52.53-54.19c0-.74,0-1.51,0-2.25A56.68,56.68,0,0,0,917.65,544.53Zm-25,50.84a19.57,19.57,0,0,1-2.59,2.9,20.76,20.76,0,0,1-29.32-1.4,20.42,20.42,0,0,1-4-6.32,20.64,20.64,0,0,1,5.07-23,20.3,20.3,0,0,1,13.87-5.41c.32,0,.63,0,.95,0a20.77,20.77,0,0,1,7.9,1.93,21.06,21.06,0,0,1,6.58,4.82,20.73,20.73,0,0,1,5.54,15A20.25,20.25,0,0,1,892.65,595.37Z" />
            <ellipse class="cls-2" cx="444.49" cy="56.78" rx="38.66" ry="38.89"
                transform="translate(78.92 315.92) rotate(-42.61)" />
            <path class="cls-1"
                d="M486.21,18.4A56.88,56.88,0,0,0,406,14.89a56.24,56.24,0,0,0-17,30,57,57,0,0,0,4.19,35.82,55.79,55.79,0,0,0,9.67,14.41A56.68,56.68,0,1,0,486.21,18.4ZM458.62,72.14a20.57,20.57,0,0,1-19.14,4.73h-.05a21,21,0,0,1-10.13-6.12,20.77,20.77,0,0,1,1.05-29.33,3.26,3.26,0,0,1,.36-.29h0A20.25,20.25,0,0,1,444.25,36a21.12,21.12,0,0,1,8.29,1.72,20.93,20.93,0,0,1,6.08,34.41Z" />
            <ellipse class="cls-3" cx="570.39" cy="75.35" rx="38.66" ry="38.89"
                transform="translate(99.59 406.05) rotate(-42.61)" />
            <path class="cls-1"
                d="M612.1,37a56.68,56.68,0,1,0-44,95.12c.85,0,1.73.07,2.59.07a56.09,56.09,0,0,0,38.24-14.94,54.26,54.26,0,0,0,6.31-6.84,56.19,56.19,0,0,0,11.89-32.62c0-.49,0-1,0-1.46A56.41,56.41,0,0,0,612.1,37Zm-26.51,24.4a21,21,0,0,1,5.54,15,20.52,20.52,0,0,1-6.6,14.32,20,20,0,0,1-9.35,4.89h0a19.26,19.26,0,0,1-5.47.52A20.94,20.94,0,0,1,556.26,60a20.43,20.43,0,0,1,13.88-5.41l.94,0A20.7,20.7,0,0,1,585.16,61l0,0A3.17,3.17,0,0,1,585.59,61.38Z" />
            <ellipse class="cls-3" cx="882.7" cy="429.87" rx="38.66" ry="38.89"
                transform="translate(-57.97 711.09) rotate(-42.61)" />
            <path class="cls-1"
                d="M924.41,391.5a56.9,56.9,0,0,0-71.67-10,55.44,55.44,0,0,0-8.56,6.49,56.93,56.93,0,1,0,80.23,3.51Zm-27.57,53.72a20.9,20.9,0,0,1-34.39-20,20.36,20.36,0,0,1,20-16.1,21,21,0,0,1,14.86,6.17c.21.18.39.4.59.61A20.78,20.78,0,0,1,896.84,445.22Z" />
            <path class="cls-1"
                d="M452.62,540.57q-2.12-38.55-14.7-69.42c-1.05-2.54-2.11-5-3.25-7.51a184.68,184.68,0,0,0-20.6-35.09,165.12,165.12,0,0,0-17.53-19.92,173.54,173.54,0,0,0-61.44-38.37q-35.22-13-75.34-13-56.83,0-88,18.56t-31.17,47.67q0,16.13,8,27.86a66.85,66.85,0,0,0,18.53,18.58A200.37,200.37,0,0,1,201.38,452q18.24-7.46,42.34-7.44,47.54,0,72.84,29.43t25.32,82.62q0,55.13-27.47,83.26T238.14,668q-25.29,0-42.93-6.81a295.8,295.8,0,0,1-33.67-15.49,61.92,61.92,0,0,0-16.35,20.73q-5.87,12.09-5.88,28.2a47.63,47.63,0,0,0,7.42,26q7.43,11.77,25.32,19.83,11.08,4.93,31.51,9.89T253,755.31q42,0,78.43-11.76A175.63,175.63,0,0,0,395,707.64a157.34,157.34,0,0,0,33.82-43.15q1.67-3,3.22-6.19c.91-1.77,1.75-3.59,2.61-5.45,1-2.22,2-4.49,2.95-6.8.91-2.16,1.75-4.36,2.52-6.58Q452.73,605,453,559c0-.82,0-1.63,0-2.45C453.05,551.15,452.91,545.82,452.62,540.57Z" />
            <path class="cls-1"
                d="M649.81,237.25Q637.93,225,617.78,225h-316q-5,7.94-9,20.89a97.28,97.28,0,0,0-3.95,28.16q0,27.42,11.89,39.68c7.89,8.19,18.6,12.27,32,12.27h81.35V661.54c2.07.59,4.58,1.14,7.53,1.7,2.18.43,4.59.84,7.24,1.25,1.32.2,2.7.41,4.15.61,1.77.28,3.61.52,5.56.77A257.53,257.53,0,0,0,472.38,668q19.64,0,33.05-3.45c-.18-1-.38-2-.54-3a171.63,171.63,0,0,1-2.48-30.72q0-46.89,19.24-69.55a66,66,0,0,1,8.92-8.72,58.75,58.75,0,0,1,9.48-6.35V326h108.7c3.35-5.28,6.35-12.27,9-20.92a95.77,95.77,0,0,0,4-28.13Q661.7,249.53,649.81,237.25Z" />
            <path class="cls-3"
                d="M774.22,803.43l-.4-.14q-19.87-6.1-43.27-13.5-12.52-4-24.45-8.58a10.88,10.88,0,1,1-10-4c-3.64-1.53-7.24-3.09-10.75-4.71q32.31-19.51,51.38-55.08t19-86.53q0-40.18-12.58-70.83t-34.69-51.49a147.45,147.45,0,0,0-22.64-17.54,15.84,15.84,0,0,1,.91,5.18,15.28,15.28,0,1,1-19-14.82c-3.58-1.62-7.19-3.16-10.91-4.51q-29.54-10.8-64-10.83a198.7,198.7,0,0,0-32.24,2.56c-3.19.55-6.36,1.14-9.49,1.81-3.76.83-7.46,1.75-11.11,2.82s-7.51,2.3-11.16,3.64a146.27,146.27,0,0,0-51.36,31.69,139.12,139.12,0,0,0-24.91,32A160,160,0,0,0,443.55,559c-.14.35-.3.7-.44,1a156,156,0,0,0-8.44,27.78,211.51,211.51,0,0,0-4.15,43c0,2.88,0,5.72.13,8.55.22,6.47.67,12.73,1.42,18.84.18,1.65.4,3.31.63,4.94.08.61.18,1.26.29,1.87A168.33,168.33,0,0,0,442.82,702c1.81,4.56,3.8,8.89,5.92,13.11a21.82,21.82,0,1,1,24.09,34.65c1.25,1.33,2.59,2.69,3.93,4a143.17,143.17,0,0,0,51.36,31.68q29.8,10.77,64.77,10.81h3l23.64,22.15q26.2,24.71,51.39,37.84a116.79,116.79,0,0,0,29.12,10.88s.55.14,1.55.35c.4.09.78.16,1.18.23h0a8,8,0,0,1-1.63-1.29,10.69,10.69,0,0,1-3.55-8,10.89,10.89,0,1,1,13.89,10.45,1.67,1.67,0,0,1-.18,0c2.83.27,5.65.47,8.46.47a74.38,74.38,0,0,0,14.43-1.31h0A52.13,52.13,0,0,0,759.61,856a37.55,37.55,0,0,0,6.61-7.68c.54-.84,1.07-1.73,1.58-2.66q6.91-12.52,6.93-32.4v-4.37A32.73,32.73,0,0,0,774.22,803.43ZM497.88,766.6a10.94,10.94,0,1,1,10.91-10.91A10.91,10.91,0,0,1,497.88,766.6Zm13.63-23.91a15.29,15.29,0,1,1,15.27-15.29A15.3,15.3,0,0,1,511.51,742.69Zm132.75-42q-19.07,22.92-50.89,22.94-32.34,0-51.39-22.94-11.37-13.75-15.94-36.1c-.19-1-.39-2-.55-3A171.55,171.55,0,0,1,523,630.91q0-46.89,19.25-69.55a65.87,65.87,0,0,1,8.9-8.72,59.72,59.72,0,0,1,9.49-6.35q14.08-7.59,32.24-7.57,32.29,0,51.37,22.91t19,69.28Q663.24,677.79,644.26,700.68ZM675.81,522.2a10.9,10.9,0,1,1,10.92,10.93A10.88,10.88,0,0,1,675.81,522.2Zm58.85,334a15.27,15.27,0,1,1,15.27-15.3A15.29,15.29,0,0,1,734.66,856.22Z" />
            <path class="cls-4"
                d="M719.39,858.4a10.86,10.86,0,0,1-7.89,10.45c-3.68-.33-6.72-.82-8.71-1.18a8,8,0,0,1-1.63-1.29,10.69,10.69,0,0,1-3.55-8,10.89,10.89,0,1,1,21.78,0Z" />
            <path class="cls-4" d="M749.93,840.92a15.29,15.29,0,0,1-15.27,15.3,15.27,15.27,0,1,1,15.27-15.3Z" />
        </g>
    </g>
</svg>