<svg width="512" height="512" viewBox="0 0 512 512" fill="none" xmlns="http://www.w3.org/2000/svg">
    <path
        d="M256 48C141.31 48 48 141.31 48 256C48 370.69 141.31 464 256 464C370.69 464 464 370.69 464 256C464 141.31 370.69 48 256 48ZM258 144C272.24 144 286.161 148.223 298.001 156.134C309.841 164.046 319.07 175.291 324.519 188.447C329.969 201.603 331.395 216.08 328.617 230.047C325.838 244.013 318.981 256.842 308.912 266.912C298.842 276.981 286.013 283.838 272.047 286.617C258.08 289.395 243.603 287.969 230.447 282.519C217.291 277.07 206.046 267.841 198.134 256.001C190.223 244.161 186 230.24 186 216C186 196.904 193.586 178.591 207.088 165.088C220.591 151.586 238.904 144 258 144V144ZM256 432C231.725 432.01 207.711 426.985 185.476 417.243C163.241 407.501 143.269 393.253 126.82 375.4C135.66 329.62 215.06 320 256 320C296.94 320 376.34 329.62 385.18 375.39C368.733 393.247 348.761 407.497 326.526 417.241C304.291 426.985 280.276 432.011 256 432V432Z"
        fill="white" />
</svg>